PathFileType	4	(X/Y/Z)	Patient4_TMGait_0pt3_03_right_28.trc.trc
DataRate	CameraRate	NumFrames	NumMarkers	Units	OrigDataRate	OrigDataStartFrame	OrigNumFrames
56.000000000000	56.000000000000	6	33	mm	56.000000000000	18	       141
Frame#	Time	Sacral			L.Shoulder			Chest			R.Shoulder			Neck			R.ASIS			L.ASIS			R.Thigh.Superior			R.Thigh.Lateral			R.Thigh.Inferior			R.Patella			L.Thigh.Superior			L.Thigh.Lateral			L.Thigh.Inferior			L.Patella			L.Shank.Superior			L.Shank.Lateral			L.Shank.Inferior			R.Shank.Superior			R.Shank.Lateral			R.Shank.Inferior			R.Heel			R.Midfoot.Superior			R.Midfoot.Lateral			R.Toe			L.Heel			L.Midfoot.Lateral			L.Midfoot.Superior			L.Toe			L.Elbow			L.Wrist			R.Elbow			R.Wrist			
		X1	Y1	Z1	X2	Y2	Z2	X3	Y3	Z3	X4	Y4	Z4	X5	Y5	Z5	X6	Y6	Z6	X7	Y7	Z7	X8	Y8	Z8	X9	Y9	Z9	X10	Y10	Z10	X11	Y11	Z11	X12	Y12	Z12	X13	Y13	Z13	X14	Y14	Z14	X15	Y15	Z15	X16	Y16	Z16	X17	Y17	Z17	X18	Y18	Z18	X19	Y19	Z19	X20	Y20	Z20	X21	Y21	Z21	X22	Y22	Z22	X23	Y23	Z23	X24	Y24	Z24	X25	Y25	Z25	X26	Y26	Z26	X27	Y27	Z27	X28	Y28	Z28	X29	Y29	Z29	X30	Y30	Z30	X31	Y31	Z31	X32	Y32	Z32	X33	Y33	Z33	

18	52.643571428571	672.740152104950	1011.696895834890	434.058871150948	897.372047065904	1439.110058799095	291.171450205683	949.981608218453	1369.605229681174	473.163155267905	824.325657710310	1442.782191249516	619.553945253050	835.903773215926	1499.734056208295	440.123231692423	875.989256678051	953.059815764456	597.424522412259	913.075133372529	959.957721373186	324.723074696326	949.894359797803	768.403684710647	574.024206791683	891.153360327605	651.442494601220	642.064145086034	978.999385220920	605.049952417056	567.350997650294	1002.030202138170	512.816740995910	589.737674212327	920.906829764282	731.192021927129	364.460793666259	820.234590689184	626.633477219601	293.148184510113	876.670947290404	541.296562682223	370.351163344531	865.406780381944	475.229462412345	381.430982629991	833.003284861107	407.900226322074	371.873701529156	739.392000132444	299.502834527852	315.010564131452	768.638138924802	188.072987422262	396.972576865722	962.007772366903	426.972949476700	601.399165012268	877.430514318688	334.356806710056	666.021248861285	923.211649982565	231.234476120468	620.217452951126	786.676976274545	65.376968263689	595.901856198653	959.257510552945	115.411939945805	639.467880519347	869.085190759089	51.953660727292	671.083155256810	1075.345491028610	60.879386036363	666.409519772732	624.942910978209	39.034334858125	433.918653556403	703.068482745119	35.537256147327	357.431824957573	786.674504927711	94.831308321660	389.238680143496	915.111144774603	40.245582856241	366.178053963289	1016.115891069932	1128.248983534077	145.300197770741	1266.446973542675	1059.842421218952	172.399515216273	650.404323134343	1135.785348875248	690.747979081752	608.037849223077	878.222525654179	698.932823267691	
19	52.661428571429	672.689350141265	1010.934061385175	435.348027296557	898.125157388474	1438.068612117398	294.177596497976	949.515797495452	1368.734486942433	476.542821451257	823.012725010348	1442.252418672602	622.047322076827	835.760059845607	1498.840917274956	442.700678824702	874.666707697510	951.542183767407	600.231626786551	913.578108253332	959.171835868863	327.626668364922	947.119927445578	765.898877687440	577.423016226403	886.437003345929	649.021663050333	644.165650800832	974.786537051430	602.660707504812	570.157147747217	997.429997627536	511.965394742994	591.275316993103	917.690658898488	729.777828703030	366.369379347301	815.505373900976	627.031847536653	293.296959902336	869.767745098905	540.541189507582	370.414480719429	857.847773370886	475.061750434174	381.068692624321	825.759662514034	408.339499652049	371.518989270001	732.635087044731	299.504132400278	314.487455258043	762.424592572972	188.215341696410	396.741619856594	960.465762544655	425.512649450813	602.517872478619	879.214778261647	329.635515156555	666.965288216604	928.521069328511	228.264120727262	620.509728556883	797.562490297344	58.179962234650	595.619579091974	968.641790276544	113.159681027790	638.970789464112	880.371948762027	47.185285292829	670.824904610778	1086.494583539243	62.242447908228	666.061649783376	619.427670932050	38.736061665596	433.846245961049	697.534160743063	35.335367447020	357.324775470184	781.057674202192	94.743228559621	389.193842081035	909.602244438225	40.400670052439	366.261268771504	1020.029307711805	1128.972009280725	148.460818357991	1272.684763167988	1071.030058273360	176.323253830654	646.677673266732	1136.926073424100	691.486831706953	602.980716557232	879.385028216720	698.740180221256	
20	52.679285714286	672.722949500564	1009.888601429138	437.035227340471	898.684874215724	1436.750541929320	297.398939974499	949.212296725589	1367.574537557411	480.035926096514	822.144458638049	1441.406304951397	624.905820245852	835.708330489899	1497.692038722156	445.601810252925	873.610940257505	949.644011675134	603.141267975281	914.076834729473	958.181206134309	330.606111593438	944.706937497818	763.175305248118	580.792294632002	882.147100670791	646.307427225316	646.051423351227	971.155525176951	600.123756365952	572.792149570413	993.171878888481	510.660211740059	592.581268177840	914.922311579343	728.354263363951	368.267289199121	811.337570484602	627.243751339102	293.727224923170	863.743962162600	539.721742721635	370.678922101440	851.291843617033	474.701555258988	380.912211168479	819.228551602164	408.564607927816	371.399139057858	726.343750679504	299.534559776985	314.179868551325	756.459139655837	188.260346581744	396.585266042300	958.763567053183	423.686546382198	603.392322189210	880.178361111531	325.231868225566	667.407140273601	932.258806420331	225.414123974626	620.345635604335	805.771935050890	52.549724286192	594.572076558016	975.468935487204	110.943168607756	638.020970731862	888.567542307659	43.442706821992	670.025021707924	1094.446296706793	62.735774325908	665.659918114036	613.931910016849	38.486747913569	433.791848874289	692.016340439267	35.163337713871	357.248434938421	775.472111828063	94.652715263329	389.169341473888	904.104953560864	40.519900055171	366.326403601086	1023.452427585841	1129.177466329151	151.960293280688	1277.911322448603	1080.996916418637	180.208934341085	644.498793708243	1137.052626339604	692.907012855429	600.129326105984	879.412289157885	699.282728419623	
21	52.697142857143	672.852106294838	1008.659933990184	439.121584455516	899.071091207263	1435.263502737203	300.842080012965	949.083057230297	1366.226856268094	483.653909084719	821.710325167985	1440.332833306738	628.137323836035	835.750544070283	1496.379191107233	448.836023590178	872.861816116643	947.490213156271	606.147190621271	914.584297203620	957.071540526150	333.660012156395	942.750422340310	760.363341142207	584.047355619435	878.413110914541	643.438500602261	647.678947768478	968.181356098082	597.555864738050	575.172464297609	989.368863989931	508.995592155648	593.600412237813	912.669889363063	726.958270696219	370.168068201620	807.795649057783	627.287295416825	294.499648067398	858.690503104989	538.861621212368	371.209436557833	845.791416379607	474.159146420546	381.048238316453	813.495817230877	408.569723160730	371.570791027283	720.581920181844	299.613330526405	314.128877136514	750.776066775074	188.212964842268	396.525982330641	956.977221930975	421.572200921806	604.003477869044	880.387571834224	321.196662115092	667.434005029466	934.433868459312	222.665491678895	619.778486724106	811.179505980025	48.347644594328	592.967249337086	979.732492706257	108.761346255122	636.734106530969	893.647651109021	40.632626711781	668.854961658399	1099.298016310468	62.357202075898	665.246433471628	608.459384521949	38.302658535127	433.750022216172	686.522846061065	35.029768564510	357.203321273269	769.930346063174	94.568619388995	389.163057813787	898.626398467419	40.593069190710	366.372622137081	1026.316864785713	1128.918753973494	155.776817033069	1282.124467261048	1089.627756265935	184.044517025222	643.804653871832	1136.262765051323	695.048075879250	599.384909493284	878.423015304664	700.653760699421	
22	52.715000000000	673.083275974070	1007.354620479913	441.604325826926	899.314901243913	1433.720918110587	304.506964824019	949.138138914202	1364.797909710159	487.403474788196	821.693079248244	1439.131158051803	631.735048935115	835.890544610804	1495.000482583028	452.400839913978	872.450993354375	945.219973582628	609.245030824567	915.105192766691	955.932267805328	336.788520979517	941.322353405738	757.592958293633	587.111045879285	875.356174253633	640.569352336234	649.050771709913	965.901888860410	595.070704046979	577.235818787756	986.112963142249	507.084201165706	594.312355577400	910.968641682923	725.627864391400	372.094364766263	804.910894972846	627.192828113359	295.655935926072	854.641756437975	537.990215377400	372.055615468536	841.338490448986	473.460768010084	381.544370721974	808.605750301015	408.365816139035	372.072223323827	715.385610880063	299.762955979929	314.359652529363	745.397000842865	188.089280079031	396.578858534415	955.191058649924	419.271664514579	604.361551568440	879.970067284924	317.583458436383	667.177627427545	935.144575142265	220.028109262679	618.898533297176	813.838917379178	45.397489979896	591.058566240728	981.563112380786	106.657137316658	635.260708297272	895.779752293792	38.645202219705	667.507652974287	1101.299536310838	61.206724495394	664.853172712155	603.013690158575	38.207216450303	433.713555282983	681.061042055303	34.947153258990	357.187097662843	764.444297421435	94.501973628341	389.170583678021	893.172636963314	40.611515134483	366.400390131255	1028.563792993240	1128.260531156369	159.877132758766	1285.338184470899	1096.832445019826	187.825040802689	644.492676108165	1134.700664680114	697.926457750736	600.618746847461	876.584056448535	702.929186407163	
23	52.732857142857	673.418066554445	1006.078705843617	444.477594671833	899.455849492004	1432.234120775554	308.384273962518	949.385453211009	1363.391047160805	491.283315896505	822.072851689931	1437.903212519777	635.677064952693	836.134418895025	1493.653653066016	456.279816493667	872.398556688082	942.976788763425	612.432351646789	915.635162993448	954.849593913455	339.991478908340	940.463489227562	754.989000189966	589.922946480549	873.081541736942	637.858242530801	650.216956927664	964.316922900616	592.773544930560	578.948277879295	983.467883597721	505.050296535213	594.736749466032	909.815468583466	724.401916115476	374.074633367325	802.676884260143	627.002596366635	297.214513657544	851.574267768515	537.141914318645	373.244529198143	837.871916404811	472.647320115031	382.439243867652	804.557344086124	407.982108885861	372.917929334438	710.759493696598	300.010181967476	314.879068876412	740.329830920932	187.917541594346	396.748742007339	953.489755158703	416.903981825608	604.507307668298	879.096574340191	314.443284602168	666.794624924270	934.570108549187	217.539559088406	617.822280511236	813.978943665813	43.500502315413	589.104739530540	981.216991838832	104.698726344540	633.759258683487	895.304747039399	37.355554385472	666.167161882659	1100.832457280153	59.461440612492	664.502497675221	597.598879748535	38.232905306759	433.673936414761	675.638000306554	34.932530623431	357.194811961271	759.026151942706	94.465783470903	389.184758886146	887.748641341580	40.568556939964	366.410870963169	1030.147019199824	1127.273759777278	164.219666288657	1287.581003647096	1102.544561307926	191.551224358426	646.424381197432	1132.547229342486	701.533697052039	603.671594108872	874.098628446655	706.158535377386	
